<?xml version="1.0" encoding="utf-8"?>
<!-- Generator: Adobe Illustrator 19.1.0, SVG Export Plug-In . SVG Version: 6.00 Build 0)  -->
<svg version="1.1"
	 id="svg1936" xmlns:svg="http://www.w3.org/2000/svg" xmlns:rdf="http://www.w3.org/1999/02/22-rdf-syntax-ns#" xmlns:sodipodi="http://sodipodi.sourceforge.net/DTD/sodipodi-0.dtd" xmlns:dc="http://purl.org/dc/elements/1.1/" xmlns:inkscape="http://www.inkscape.org/namespaces/inkscape" xmlns:cc="http://creativecommons.org/ns#" sodipodi:docname="Amazon.com-Logo.svg" inkscape:version="0.91 r13725"
	 xmlns="http://www.w3.org/2000/svg" xmlns:xlink="http://www.w3.org/1999/xlink" x="0px" y="0px" viewBox="180 299.3 642 195.7"
	 style="enable-background:new 180 299.3 642 195.7;" xml:space="preserve">
<style type="text/css">
	.st0{fill:#221F1F;}
</style>
<sodipodi:namedview  inkscape:cx="515.8293" inkscape:cy="60.382118" objecttolerance="10" id="namedview19" pagecolor="#ffffff" showgrid="false" borderopacity="1" inkscape:zoom="0.72245926" guidetolerance="10" gridtolerance="10" bordercolor="#666666" inkscape:current-layer="svg1936" inkscape:window-maximized="1" inkscape:window-y="-8" inkscape:window-x="-8" inkscape:pageopacity="0" inkscape:window-height="706" inkscape:window-width="1280" inkscape:pageshadow="2">
	</sodipodi:namedview>
<path id="path8" inkscape:connector-curvature="0" d="M573.2,447c-35,25.8-85.7,39.6-129.4,39.6c-61.2,0-116.4-22.7-158.1-60.3
	c-3.3-3-0.3-7,3.6-4.7c45,26.2,100.7,41.9,158.2,41.9c38.8,0,81.4-8,120.6-24.7C574,436.3,579,442.7,573.2,447"/>
<path id="path10" inkscape:connector-curvature="0" d="M587.7,430.3c-4.5-5.7-29.6-2.7-40.8-1.4c-3.4,0.4-4-2.6-0.9-4.7
	c20-14.1,52.8-10,56.7-5.3c3.8,4.7-1,37.6-19.8,53.4c-2.9,2.4-5.6,1.1-4.4-2.1C582.8,459.7,592.2,436.1,587.7,430.3"/>
<path id="path12" inkscape:connector-curvature="0" class="st0" d="M547.7,324.9v-13.7c0-2.1,1.6-3.5,3.5-3.5h61.3
	c2,0,3.5,1.4,3.5,3.5v11.7c0,2-1.7,4.5-4.6,8.6l-31.7,45.3c11.8-0.3,24.3,1.5,34.9,7.5c2.4,1.4,3.1,3.4,3.3,5.3v14.6
	c0,2-2.2,4.3-4.5,3.1c-18.8-9.9-43.9-11-64.7,0.1c-2.1,1.2-4.4-1.2-4.4-3.1v-13.9c0-2.2,0-6,2.3-9.4l36.8-52.7h-32
	C549.2,328.3,547.7,326.9,547.7,324.9"/>
<path id="path14" inkscape:connector-curvature="0" class="st0" d="M324.2,410.2h-18.6c-1.8-0.1-3.2-1.5-3.3-3.2v-95.7
	c0-1.9,1.6-3.4,3.6-3.4h17.4c1.8,0.1,3.3,1.5,3.4,3.2v12.5h0.3c4.5-12.1,13.1-17.7,24.5-17.7c11.7,0,19,5.6,24.2,17.7
	c4.5-12.1,14.8-17.7,25.7-17.7c7.8,0,16.4,3.2,21.6,10.5c5.9,8,4.7,19.7,4.7,30l0,60.4c0,1.9-1.6,3.5-3.6,3.5h-18.6
	c-1.9-0.1-3.4-1.6-3.4-3.5v-50.7c0-4,0.4-14.1-0.5-17.9c-1.4-6.4-5.6-8.2-11-8.2c-4.5,0-9.2,3-11.1,7.8s-1.7,12.9-1.7,18.3v50.7
	c0,1.9-1.6,3.5-3.6,3.5h-18.6c-1.9-0.1-3.4-1.6-3.4-3.5l0-50.7c0-10.7,1.8-26.4-11.5-26.4c-13.4,0-12.9,15.3-12.9,26.4v50.7
	C327.8,408.7,326.2,410.2,324.2,410.2"/>
<path id="path16" inkscape:connector-curvature="0" class="st0" d="M668.7,306c27.7,0,42.6,23.8,42.6,54c0,29.2-16.5,52.3-42.6,52.3
	c-27.2,0-41.9-23.8-41.9-53.4C626.7,329.1,641.7,306,668.7,306 M668.8,325.5c-13.7,0-14.6,18.7-14.6,30.4c0,11.7-0.2,36.7,14.4,36.7
	c14.4,0,15.1-20.1,15.1-32.4c0-8.1-0.3-17.7-2.8-25.4C678.9,328.1,674.8,325.5,668.8,325.5"/>
<path id="path18" inkscape:connector-curvature="0" class="st0" d="M747.2,410.2h-18.6c-1.9-0.1-3.4-1.6-3.4-3.5l0-95.7
	c0.2-1.8,1.7-3.1,3.6-3.1h17.3c1.6,0.1,3,1.2,3.3,2.7v14.6h0.3c5.2-13.1,12.5-19.3,25.4-19.3c8.4,0,16.5,3,21.8,11.3
	c4.9,7.7,4.9,20.5,4.9,29.8v60.2c-0.2,1.7-1.8,3-3.6,3h-18.7c-1.7-0.1-3.1-1.4-3.3-3v-52c0-10.5,1.2-25.8-11.7-25.8
	c-4.5,0-8.7,3-10.8,7.7c-2.6,5.8-3,11.7-3,18.1v51.5C750.8,408.7,749.2,410.2,747.2,410.2"/>
<path class="st0" d="M532,392.7c-3.4-4.7-7-8.5-7-17.3v-29c0-12.3,0.9-23.6-8.2-32.1c-7.2-6.9-19-9.3-28.1-9.3
	c-17.7,0-37.5,6.6-41.7,28.5c-0.4,2.3,1.3,3.6,2.8,3.9l18.1,1.9c1.7-0.1,2.9-1.7,3.3-3.4c1.5-7.6,7.9-11.2,15-11.2
	c3.9,0,8.2,1.4,10.5,4.9c2.6,3.8,2.3,9.1,2.3,13.5v2.4c-10.8,1.2-24.9,2-35.1,6.5c-11.7,5-19.9,15.3-19.9,30.5
	c0,19.4,12.2,29,27.9,29c13.2,0,20.5-3.1,30.7-13.6c3.4,4.9,4.5,7.3,10.7,12.4c1.4,0.7,3.2,0.7,4.4-0.4v0h0l0,0l0,0.1
	c3.7-3.3,10.5-9.2,14.3-12.4C533.5,396.4,533.2,394.4,532,392.7z M495.3,384.3c-3,5.2-7.7,8.5-12.9,8.5c-7.2,0-11.4-5.5-11.4-13.5
	c0-15.9,14.2-18.8,27.7-18.8v4C498.8,371.8,499,377.9,495.3,384.3z"/>
<path class="st0" d="M287.7,392.7c-3.4-4.7-7-8.5-7-17.3v-29c0-12.3,0.9-23.6-8.2-32.1c-7.2-6.9-19-9.3-28.1-9.3
	c-17.7,0-37.5,6.6-41.7,28.5c-0.4,2.3,1.3,3.6,2.8,3.9l18.1,1.9c1.7-0.1,2.9-1.7,3.2-3.4c1.5-7.6,7.9-11.2,15-11.2
	c3.8,0,8.2,1.4,10.5,4.9c2.6,3.8,2.3,9.1,2.3,13.5v2.4c-10.8,1.2-24.9,2-35.1,6.5c-11.7,5-19.9,15.3-19.9,30.5
	c0,19.4,12.2,29,27.9,29c13.3,0,20.5-3.1,30.7-13.6c3.4,4.9,4.5,7.3,10.7,12.4c1.4,0.7,3.2,0.7,4.4-0.4l0.1,0.1
	c3.7-3.3,10.5-9.2,14.3-12.4C289.1,396.4,288.9,394.4,287.7,392.7z M251,384.3c-3,5.2-7.7,8.5-12.9,8.5c-7.2,0-11.3-5.5-11.3-13.5
	c0-15.9,14.2-18.8,27.7-18.8v4l0,0C254.5,371.8,254.6,377.9,251,384.3z"/>
</svg>
