<?xml version="1.0" encoding="utf-8"?>
<!-- Generator: Adobe Illustrator 19.1.0, SVG Export Plug-In . SVG Version: 6.00 Build 0)  -->
<svg version="1.1" id="Layer_1" xmlns="http://www.w3.org/2000/svg" xmlns:xlink="http://www.w3.org/1999/xlink" x="0px" y="0px"
	 viewBox="0 0 267.1 50.7" style="enable-background:new 0 0 267.1 50.7;" xml:space="preserve">
<g>
	<path d="M225.3,29.8c-0.3-0.3-0.6-0.1-0.7,0c-0.3,0.2-0.6,0.2-0.9,0.3c-0.2,0-0.4,0.1-0.5,0.1c-0.3,0.1-0.4,0.1-0.6-0.3
		c-0.2-0.3-0.3-0.6-0.4-0.9c0-0.1-0.1-0.3-0.2-0.4l-0.1-0.2c-0.1-0.3-0.3-0.5-0.5-0.8c-0.1-0.2-0.3-0.3-0.4-0.4
		c-0.1-0.1-0.3-0.1-0.4-0.1c-0.1,0-0.2,0.1-0.3,0.3c0,0.1-0.1,0.1-0.2,0.2c-0.1,0.1-0.3,0.3-0.3,0.5c0,0,0,0,0,0c0,0,0,0-0.1,0.1
		l-0.1,0.2c-0.2,0.2-0.3,0.4-0.5,0.6l0,0c-0.1,0.1-0.2,0.3-0.4,0.3c-0.1-0.1-0.2-0.2-0.3-0.4c0-0.1-0.1-0.2-0.1-0.3l-0.1-0.2
		c-0.1-0.3-0.3-0.5-0.6-0.5c-0.1,0-0.2,0-0.3,0.1c0,0,0-0.1,0-0.1c0-0.2,0-0.4,0-0.7c0-0.1,0-0.2,0-0.3V27l-0.1-0.1
		c-0.3-0.2-0.5-0.2-0.7-0.2c-0.2,0.1-0.3,0.2-0.4,0.5c-0.1,0.1-0.1,0.3-0.2,0.4c-0.1,0.2-0.2,0.4-0.3,0.5c-0.1,0.2-0.2,0.3-0.3,0.5
		c-0.2,0.4-0.4,0.8-0.2,1.4c0,0.1,0,0.1,0,0.1c0,0-0.1,0.1-0.1,0c-0.1-0.1-0.3-0.3-0.3-0.4c-0.1-0.3-0.3-0.6-0.3-0.9
		c0-0.4-0.2-0.7-0.3-1l-0.1-0.1c-0.2-0.4-0.8-0.7-1.2-0.6c-0.5,0.1-0.8,0.4-1.1,0.9c0,0-0.1,0.1-0.1,0.1c0-0.3,0.1-0.6,0.1-0.9
		l0.1-0.4c0.1-0.4,0.2-0.8,0.2-1.2c0-0.2,0-0.3,0.1-0.5c0.1-0.4,0.1-0.7,0.1-1.1c0-0.2-0.1-0.3-0.1-0.5c0-0.2-0.1-0.4-0.1-0.6
		c0-0.2-0.2-0.3-0.4-0.4c-0.2,0-0.4,0-0.6,0.1c-0.2,0.1-0.2,0.4-0.2,0.6c0.1,1,0,2-0.2,2.8c-0.1,0.4-0.1,0.8-0.1,1.1
		c0,0.3-0.1,0.7-0.1,1c0,0.1,0,0.1,0,0.2c0,0.4-0.1,0.7-0.3,0.9c-0.1,0.1-0.1,0.1-0.2,0.2c0,0-0.1,0.1-0.1,0.1l-0.1,0.2
		c-0.2,0.2-0.3,0.4-0.5,0.6c-0.1,0.1-0.3,0.2-0.5,0.3c0,0-0.1,0-0.2,0c-0.1,0-0.1-0.1-0.2-0.2l0-0.1c-0.3-0.4-0.5-0.9-0.6-1.4
		l-0.1-0.5c-0.1-0.7-0.2-1.5-0.2-2.2c0-0.4,0.1-0.6,0.4-0.7c0.1-0.1,0.2-0.1,0.3-0.2l0.3-0.2c0.1-0.1,0.3-0.1,0.4-0.2
		c0.1-0.1,0.2-0.3,0.1-0.4c0-0.1-0.2-0.3-0.3-0.3c-0.1,0-0.2,0-0.3,0c0,0-0.1,0-0.1,0c0,0-0.1,0-0.1,0c0-0.1,0-0.2,0.1-0.3l0-0.1
		c0.1-0.2,0.1-0.4,0.2-0.6c0.1-0.2,0.2-0.4,0.2-0.6c0.2-0.6,0.3-1.1,0.5-1.6c0.1-0.2,0.1-0.5,0-0.7c-0.1-0.5-0.2-0.9-0.5-1.5
		c-0.1-0.3-0.3-0.4-0.6-0.5c-0.2,0-0.4,0-0.6,0.4c-0.2,0.3-0.3,0.6-0.3,1c0,0.2,0,0.3,0,0.4c-0.2,0.5-0.3,1.1-0.4,1.6l-0.1,0.3
		c-0.2,0.8-0.4,1.6-0.4,2.4c0,0.3-0.1,0.5-0.3,0.6c-0.3,0.1-0.4,0.4-0.3,0.7l0,0.1l0.4,0.2c0,0.1,0,0.1,0,0.2c0,0.3-0.1,0.6-0.3,0.8
		c-0.1-0.2-0.1-0.4-0.1-0.6c0-0.2,0-0.3,0-0.5l0-0.1c0-0.3-0.2-0.5-0.3-0.6c-0.2-0.1-0.5,0-0.7,0.1c0-0.1,0-0.2-0.1-0.3
		c-0.2-0.3-0.4-0.3-0.7-0.2c-0.2,0.1-0.3,0.2-0.4,0.4c-0.1,0.1-0.2,0.2-0.3,0.3c0,0.1-0.1,0.1-0.1,0.2c-0.2,0.3-0.3,0.6-0.3,0.9
		c0,0,0,0.1-0.1,0.3c-0.1,0.1-0.9,0.7-1,0.7l0,0c0,0,0,0-0.1,0c-0.2,0-0.2,0-0.3-0.1c-0.1-0.2-0.2-0.5-0.2-0.7
		c-0.1-0.3-0.1-0.7-0.2-1c-0.1-0.3-0.1-0.6-0.2-0.9c-0.1-0.3-0.1-0.6-0.2-0.9c-0.1-0.2-0.2-0.3-0.3-0.4c-0.2,0-0.3,0-0.5,0.1
		c-0.1,0.1-0.3,0.2-0.4,0.4c-0.2,0.3-0.3,0.5-0.5,0.8l-0.1,0.2l-0.3,0l0-0.1c0-0.2,0-0.4,0-0.6c0-0.3-0.1-0.6-0.6-0.9
		c-0.5-0.2-0.9-0.2-1.2,0.1c0,0,0,0-0.1,0c0,0,0,0,0,0c-0.5-0.5-0.8-0.5-1.3-0.1c-0.7,0.6-1.3,1.3-1.8,2l-0.3,0.4
		c-0.2,0.3-0.5,0.6-0.7,1c-0.1,0.1-0.2,0.3-0.3,0.4c0-0.2,0-0.3,0.1-0.5c0.1-0.6,0.1-1.1,0-1.7c0,0,0-0.1,0-0.1c0,0,0-0.1,0-0.1
		l0-0.1c0-0.1,0-0.2,0-0.3c0-1.2,0-2.3,0.1-3.5c0-0.4,0-0.8,0-1.2l0-0.2c0-0.5,0-1,0.1-1.4c0-0.2,0-0.4,0-0.6
		c-0.1-0.6-0.1-1.3-0.2-1.9l0-0.1c0-0.1,0-0.1,0-0.2c0-0.1,0-0.2,0-0.3c0-0.8,0-1.6-0.1-2.4l0-0.2c0-0.3-0.1-0.6-0.1-0.9
		c-0.1-0.7-0.1-1.5-0.3-2.3l0,0c0-0.2-0.1-0.4-0.1-0.5c-0.1-0.9-0.3-1.6-0.4-2.2c-0.2-0.6-0.3-1.2-0.4-1.8c-0.1-0.4-0.2-0.8-0.2-1.2
		c-0.1-0.4-0.1-0.7-0.2-1.1c-0.1-0.4-0.3-0.8-0.5-1.1c-0.4-0.5-0.9-0.6-1.4-0.2c-0.2,0.2-0.5,0.4-0.7,0.6c-0.2,0.2-0.3,0.5-0.4,0.7
		c-0.1,0.1-0.1,0.3-0.2,0.4c-0.2,0.3-0.1,0.6,0.1,0.8l0.1,0.1L187,4c0,0,0.1,0,0.1-0.1c0.1-0.2,0.3-0.3,0.4-0.5
		c0.1-0.2,0.3-0.4,0.4-0.5c0.2-0.2,0.3-0.3,0.4-0.3c0.1,0,0.1,0.1,0.1,0.3l0,0.1c0.1,0.6,0.2,1.2,0.3,1.8c0.1,0.4,0.2,0.7,0.2,1.1
		c0.1,0.3,0.2,0.7,0.2,1c0.1,0.4,0.2,0.8,0.2,1.2c0,0.2,0.1,0.5,0.1,0.7c0,0.2,0.1,0.5,0.1,0.7c0.1,0.4,0.1,0.8,0.2,1.3
		c0,0.1,0,0.2,0,0.4c0,0.3,0.1,0.6,0.1,0.9c0.1,0.6,0.2,1.3,0.2,1.9l0,0.5c0,0.5,0.1,1,0.1,1.6l0,0.5c0,0.6,0.1,1.2,0.1,1.7
		c0,0.3,0,0.6,0,0.9c0,0.3,0,0.5,0,0.8c0,0.5,0,1.1,0,1.6l0,0.5c0,0.2,0,0.4,0,0.6c0,0.4,0,0.9,0,1.3c0,0.7-0.1,1.4-0.1,1.9
		c0,0.5,0,1.1-0.1,1.6l0,0.4c0,0.1,0,0.2,0,0.3c0,0.1,0,0.3,0,0.4c0,0.7-0.1,1.2-0.4,1.6c0,0-0.1,0.1-0.1,0.1
		c-0.3,0.6-0.3,0.6-0.9,0.7c-0.1,0-0.2,0-0.4,0.1c0,0-0.1,0-0.2,0l-0.6,0c-0.5,0-1,0-1.4-0.1c-0.4,0-0.8-0.1-1.3-0.2
		c-0.2,0-0.4-0.1-0.6-0.1c-1-0.1-1.9-0.4-2.6-0.9c-0.4-0.3-0.6-0.6-0.7-1c-0.1-0.6-0.2-1-0.1-1.5l0.1-0.5c0.1-0.5,0.2-1.1,0.3-1.6
		c0.1-0.4,0.2-0.9,0.3-1.3l0.1-0.5c0.1-0.2,0.1-0.5,0.2-0.7c0.1-0.6,0.3-1.1,0.5-1.7c0.3-0.9,0.5-1.9,0.7-2.8l0.1-0.4
		c0-0.1,0-0.2,0.1-0.3c0-0.1,0.1-0.2,0.1-0.4c0.1-0.3,0.1-0.6,0.2-0.9c0-0.2,0.1-0.4,0.1-0.5c0-0.1,0-0.1,0.1-0.2
		c0.2-0.7,0.4-1.4,0.6-2.1l0-0.1c0.1-0.4,0.1-0.8,0.2-1.2c0-0.2,0.1-0.3,0.1-0.5c0-0.2,0.1-0.3,0.1-0.5c0.1-0.3,0.1-0.6,0.2-0.9
		c0-0.3,0.1-0.5,0.1-0.8l0.1-0.3c0.1-0.4,0.1-0.7,0.3-1.1l0-0.1c0.1-0.2,0.2-0.5,0.2-0.8c0-0.3,0.1-0.7,0.3-1
		c0.1-0.2,0.1-0.4,0.1-0.5c0-0.1,0-0.2-0.1-0.3c0,0,0,0,0-0.1L186.1,5L186,5.1c-0.2,0.2-0.3,0.3-0.3,0.5l0,0.1
		c-0.1,0.2-0.2,0.5-0.2,0.8c-0.1,0.4-0.2,0.8-0.4,1.1c-0.1,0.1-0.1,0.2-0.1,0.3c0,0,0,0.1,0,0.1l0,0.2c0,0.1-0.1,0.3-0.1,0.4
		c0,0.1-0.1,0.2-0.1,0.4c0,0.1-0.1,0.2-0.1,0.3c-0.1,0.5-0.3,1.1-0.4,1.6c0,0.1,0,0.2,0,0.2l0,0.2c0,0.1,0,0.2,0,0.3l-0.3,1.3
		c-0.1,0.6-0.3,1.2-0.4,1.7c-0.1,0.3-0.1,0.5-0.2,0.8c-0.1,0.4-0.2,0.8-0.3,1.3c-0.1,0.3-0.2,0.6-0.3,0.9c-0.1,0.5-0.3,1-0.4,1.5
		c-0.1,0.4-0.2,0.9-0.4,1.3c-0.2,0.6-0.3,1.1-0.4,1.7c0,0,0,0.1,0,0.1c-0.3,0.7-0.5,1.3-0.6,2c-0.1,0.4-0.2,0.7-0.3,1
		c-0.2,0.5-0.3,1-0.3,1.6c0,0,0,0,0,0.1c-0.3,0.8-0.2,1.5,0,2.3c0.1,0.4,0.3,0.8,0.6,1.1c0.4,0.4,0.9,0.8,1.6,1
		c0.6,0.2,1.2,0.3,1.7,0.4c0.2,0,0.4,0.1,0.6,0.1c0.6,0.1,1.3,0.2,1.9,0.3l0.3,0c0.6,0.1,1.1,0.1,1.7,0c0,0,0.1,0,0.1,0
		c-0.1,0.3-0.3,0.6-0.4,0.9c-0.1,0.1-0.1,0.2-0.2,0.3c-0.1,0.1-0.2,0.3-0.2,0.4c-0.1,0.2-0.2,0.4-0.4,0.6c-0.3,0.7-0.6,1.2-0.8,1.7
		c-0.2,0.4-0.3,0.8-0.5,1.2l-0.1,0.3c0,0.1,0,0.1-0.1,0.2c0,0.1,0,0.2-0.1,0.2c-0.3,0.5-0.4,1-0.5,1.5c-0.1,0.4-0.2,0.8-0.4,1.2
		c0,0.1,0,0.1,0,0.2l0,0.3c0,0.2-0.1,0.4-0.1,0.6l-0.1,0.5c0,0.3-0.1,0.6-0.1,0.9c0,0.2-0.1,0.4-0.1,0.7c-0.1,0.3-0.1,0.6-0.2,0.9
		c-0.1,0.3-0.1,0.7-0.1,1c0,0.2,0,0.4,0,0.6c0,0.3,0,0.6,0,0.8c0,0.8,0.3,1.3,0.7,1.8c0.2,0.2,0.4,0.3,0.6,0.3c0,0,0,0,0,0
		c0.2,0,0.5-0.1,0.6-0.3c0.2-0.2,0.3-0.5,0.4-0.7c0.1-0.3,0.3-0.5,0.4-0.8c0.1-0.1,0.1-0.3,0.2-0.4c0.3-0.8,0.6-1.6,0.9-2.5
		c0-0.1,0.1-0.3,0.1-0.4c0-0.2,0.1-0.4,0.1-0.5l0.1-0.2c0.3-0.8,0.5-1.6,0.7-2.4c0-0.1,0-0.1,0.1-0.2l0-0.1c0-0.1,0.1-0.2,0.1-0.3
		c0.1-0.3,0.2-0.5,0.2-0.8c0.1-0.5,0.2-1,0.4-1.5c0.2-0.8,0.4-1.7,0.6-2.6c0.1-0.7,0.2-1.4,0.3-2.1l0.1-0.8c0,0,0-0.1,0-0.1
		c0-0.2,0-0.3,0.2-0.4c0.1,0,0.2-0.2,0.2-0.3c0-0.1,0-0.1,0.2-0.2l0.3-0.1c0.4-0.1,0.7-0.3,1.1-0.5c0.4-0.2,0.6-0.6,0.8-0.9
		c0.1-0.1,0.2-0.2,0.2-0.4c0,0,0-0.1,0-0.1c0-0.2,0-0.3-0.1-0.4c-0.1-0.1-0.2-0.2-0.4-0.1c-0.2,0-0.4,0.1-0.5,0.3
		c-0.1,0.2-0.3,0.3-0.5,0.4c-0.2,0.1-0.4,0.2-0.6,0.3l-0.1,0.1c0,0-0.1,0-0.1,0c-0.1,0-0.1,0-0.1,0.1c0-0.1,0-0.1,0-0.2
		c0-0.2,0-0.4,0.1-0.5l0.1-0.1c0.2-0.3,0.3-0.6,0.5-0.9c0.1-0.2,0.2-0.3,0.4-0.5c0.2-0.3,0.4-0.5,0.6-0.9c0,0,0,0,0.1-0.1
		c0,0,0.1-0.1,0.1-0.1c0.1-0.2,0.3-0.3,0.4-0.5c0.1-0.1,0.2-0.2,0.3-0.3c0.2-0.2,0.4-0.4,0.5-0.6l0.1-0.1c0.1-0.1,0.2-0.2,0.2-0.2
		c0,0.2-0.1,0.4-0.1,0.5c-0.3,0.6-0.1,1.2,0.4,1.6c0.4,0.4,1.3,0.6,1.9,0.2c0.4-0.3,0.7-0.7,0.9-1.2c0,0.5-0.1,1-0.1,1.5
		c0,0.3,0.2,0.6,0.5,0.6c0.3,0.1,0.5,0,0.7-0.3l0-0.1c0.1-0.1,0.2-0.3,0.2-0.5c0-0.2,0-0.4,0.1-0.6c0-0.1,0.1-0.2,0.1-0.2l0.1-0.3
		c0-0.2,0.1-0.3,0.1-0.5l0,0.2c0.1,0.5,0.3,1.1,0.4,1.6c0,0.2,0.1,0.3,0.1,0.4c0.2,0.4,0.5,0.6,0.8,0.7c0.3,0.1,0.6,0,1-0.2
		c0.2-0.1,0.5-0.3,0.7-0.5c0,0,0.1,0,0.1-0.1c0,0.1,0.1,0.3,0.1,0.4c0.1,0.2,0.3,0.5,0.8,0.5c0,0,0,0,0,0c0.5,0,0.8-0.2,1.1-0.5
		c0.2-0.3,0.4-0.4,0.7-0.3c0.4,0.1,0.8,0,1.1-0.4c0,0,0,0,0,0c0,0.1,0,0.2,0,0.3c0,0.2,0,0.4,0.1,0.5l0,0c0,0.3,0.1,0.5,0.2,0.8
		c0.2,0.6,0.4,1.3,1,1.8c0.5,0.5,1.4,0.6,2,0.1c0.3-0.3,0.7-0.6,0.9-1.1c0-0.1,0.1-0.1,0.1-0.2c0,0,0,0.1,0.1,0.1c0,0,0,0.1,0.1,0.1
		c0,0.1,0.1,0.2,0.1,0.3c0.1,0.1,0.3,0.4,0.6,0.3c0.3-0.1,0.5-0.3,0.5-0.6c0-0.4,0.1-0.9,0.3-1.5c0.1-0.2,0.2-0.5,0.3-0.7
		c0.1-0.2,0.4-0.3,0.5-0.3c0.1,0.1,0.2,0.2,0.2,0.5c0,0,0,0.1,0,0.1l0.1,0.3c0.1,0.3,0.1,0.5,0.2,0.8c0.1,0.4,0.4,0.8,0.7,1
		c0.2,0.2,0.5,0.3,0.7,0.3c0.4,0,1,0,1.3-0.5c0.1-0.1,0.2-0.2,0.4-0.2c0.4-0.1,0.6-0.3,0.9-0.5l0.1-0.1c0,0,0.1-0.1,0.1-0.1l0.1,0.1
		c0.2,0.1,0.3,0.2,0.5,0.3c0.4,0.3,0.7,0.2,1.1,0c0.4-0.3,0.6-0.5,0.8-0.9c0.1-0.3,0.3-0.5,0.4-0.8l0-0.1c0.1,0.1,0.1,0.2,0.2,0.3
		c0.1,0.1,0.1,0.3,0.2,0.4c0.2,0.3,0.3,0.5,0.4,0.8c0.1,0.4,0.4,0.7,0.7,0.9c0.1,0.1,0.1,0.1,0.2,0.2c0.1,0.1,0.1,0.1,0.2,0.1
		c0.5,0.2,1,0.1,1.5-0.1c0.4-0.2,0.7-0.4,1-0.7l0.1-0.1c0.2-0.1,0.3-0.3,0.3-0.4C225.4,30,225.4,29.9,225.3,29.8z M190.2,33
		c0,0.3-0.1,0.6-0.2,0.9c0,0.2-0.1,0.5-0.1,0.7c-0.1,0.5-0.2,1.1-0.3,1.6c-0.2,0.7-0.4,1.3-0.5,2c-0.1,0.6-0.3,1.2-0.5,1.8
		c0,0.1-0.1,0.3-0.1,0.4c-0.1,0.7-0.3,1.3-0.5,2c-0.3,0.8-0.5,1.5-0.8,2.3c-0.3,0.7-0.5,1.5-0.8,2.2c-0.1,0.4-0.4,0.7-0.6,1
		c-0.1-0.1-0.2-0.2-0.2-0.3c-0.1-0.5-0.2-1-0.2-1.6c0-0.5,0-0.9,0-1.4c0-0.6,0.1-1.2,0.2-1.8c0,0,0-0.1,0-0.1
		c-0.1-0.6,0.2-1.1,0.4-1.7c0.1-0.4,0.2-0.8,0.3-1.3c0-0.1,0-0.2,0.1-0.2c0.2-0.3,0.2-0.7,0.3-1.1c0-0.1,0.1-0.3,0.1-0.4
		c0.3-0.7,0.7-1.5,1-2.2c0.2-0.3,0.3-0.7,0.5-1c0.4-0.8,0.8-1.5,1.3-2.3c0.1-0.1,0.2-0.2,0.2-0.3c0.1-0.1,0.2-0.1,0.4,0
		C190.2,32.4,190.2,32.7,190.2,33z M197.4,25.4c-0.1,0.3-0.3,0.6-0.5,0.9c-0.1,0.2-0.2,0.3-0.4,0.5c-0.1,0.1-0.2,0.2-0.3,0.2
		c-0.3,0.1-0.5-0.1-0.5-0.4c0,0,0-0.1,0-0.1c0.1-0.4,0.3-0.9,0.4-1.3c0.3,0.1,0.6,0.1,0.8,0c0.1,0,0.1-0.1,0.2-0.1
		C197.3,25.1,197.5,25.3,197.4,25.4z M204,27.6c-0.1,0.2-0.2,0.4-0.3,0.6l0-0.1c0-0.3,0.1-0.6,0.2-0.8l0-0.1c0-0.1,0-0.1,0.1-0.2
		c0,0.1,0,0.3,0.1,0.4c0,0,0,0.1,0,0.1L204,27.6z M207.3,23.3c0-0.5,0.2-0.9,0.3-1.3c0.1-0.2,0.1-0.4,0.2-0.6l0.2,0
		c0,0.6-0.2,1.3-0.5,1.9l-0.2,0.4L207.3,23.3z M217.1,28.7c0,0,0,0.1,0,0.1c0,0.2-0.1,0.1-0.2,0.1c0,0,0,0-0.1,0
		C216.9,28.8,217,28.7,217.1,28.7C217.1,28.6,217.1,28.7,217.1,28.7z"/>
	<g>
		<path d="M155.5,26.3c-0.2-0.3-0.5-0.3-0.7-0.4c-0.1,0-0.1,0-0.2,0c-0.4-0.1-0.8,0-1.1,0.4c-0.2,0.2-0.3,0.4-0.5,0.6
			c-0.2,0.2-0.4,0.4-0.4,0.8c0,0.2-0.1,0.3-0.1,0.5c-0.1,0.4-0.2,0.8-0.1,1.3c0,0,0,0.1,0,0.2c0,0.2,0,0.3,0,0.5
			c0,0.5,0.4,0.9,0.9,0.9c0,0,0,0,0.1,0c0.5,0,0.9-0.3,1.2-0.5l0.1-0.1c0.1-0.2,0.2-0.3,0.3-0.5c0.3-0.4,0.6-0.8,0.6-1.3
			c0,0,0-0.1,0.1-0.1c0.2-0.3,0.2-0.6,0.2-0.9l0-0.1c0-0.1,0-0.2,0-0.3C155.8,26.9,155.7,26.6,155.5,26.3z M154.7,28.3
			c-0.3,0.5-0.5,1-0.7,1.5c-0.1,0.1-0.2,0.3-0.4,0.2c0-0.1-0.1-0.2-0.1-0.3c0-0.4,0-0.8,0.1-1.2c0-0.1,0.1-0.3,0.1-0.4
			c0-0.4,0.1-0.6,0.5-0.8c0.1-0.1,0.2-0.3,0.4-0.5c0.1,0.1,0.2,0.2,0.2,0.3C154.8,27.5,154.8,27.9,154.7,28.3z"/>
		<path d="M144.1,22.8l0-0.7c0-0.1,0-0.2,0-0.3c0,0,0-0.1,0-0.1c0-0.1,0-0.1,0-0.2l0-0.4c0-0.5-0.1-1-0.2-1.5c0-0.3-0.1-0.6-0.3-0.9
			c-0.1-0.3-0.3-0.5-0.5-0.6l-0.1,0l-0.1,0c0,0-0.1,0-0.1,0c-0.1,0-0.2,0.1-0.2,0.1c-0.4,0.3-0.5,0.5-0.3,0.9c0,0.1,0,0.1,0.1,0.2
			c0,0.1,0.1,0.1,0.1,0.2c0,0.4,0.1,0.8,0.1,1.2c0,0.2,0.1,0.4,0.1,0.6l0,0.3c0,0.4,0.1,0.7,0,1c-0.1,0.3-0.1,0.7-0.1,1.1
			c0.1,0.7,0,1.2-0.1,1.8c0,0.1,0,0.3,0,0.4l0,0.1c0,0.5,0.1,0.9,0.1,1.4l0.1,0.9c0,0.3,0.1,0.7,0.1,1l0,0.2c0,0.3,0.1,0.7,0,1
			c-0.1,0.2,0,0.5,0,0.8l0,0.1c0.1,0.3,0.4,0.5,0.7,0.5c0,0,0.1,0,0.1,0c0.2,0,0.5-0.1,0.6-0.7l0-0.2c0-0.2,0-0.3,0-0.5l0-0.4
			c0-0.4,0-0.9,0-1.3c0-0.3-0.1-0.6-0.1-1c-0.1-0.3-0.1-0.7-0.1-1.1c-0.1-0.9-0.1-1.8,0-2.9C144.1,23.5,144.1,23.1,144.1,22.8z"/>
		<path d="M152.5,25.7c0-0.1,0.1-0.1,0.1-0.2c0.2-0.3,0.3-0.6,0.3-1c0,0,0-0.1,0-0.1c0,0,0.1-0.1,0.1-0.2l0-0.1
			c0.1-0.3,0.2-0.6,0.3-0.9c0.1-0.3,0.1-0.6,0.2-0.8c0.1-0.3,0.1-0.6,0.2-0.9c0-0.4,0.1-0.7,0.1-1.1c0-0.2,0-0.3,0-0.5
			c0-0.3,0.1-0.7,0-1c0,0,0,0,0-0.1c0,0,0-0.1,0-0.1l0-0.4c0-0.3,0-0.6,0-0.9c0-0.4,0-0.8-0.1-1.2c0-0.2-0.1-0.4-0.1-0.6
			c0-0.4-0.1-0.8-0.2-1.2c-0.1-0.3-0.2-0.5-0.3-0.8c-0.1-0.3-0.2-0.5-0.3-0.8c-0.1-0.5-0.4-0.9-0.7-1.2c-0.2-0.2-0.4-0.5-0.5-0.7
			c0-0.1-0.1-0.1-0.1-0.1l-0.1-0.1c-0.1-0.1-0.2-0.2-0.3-0.3c-0.5-0.5-1.1-0.8-1.7-1.1L149.3,9c-0.3-0.2-0.8-0.3-1.3-0.5
			c-0.9-0.2-1.6-0.4-2.3-0.5c-0.7-0.1-1.4-0.1-2-0.2l-0.6,0c-0.3,0-0.5,0-0.8,0l-0.5,0.1c-0.8,0.1-1.6,0.2-2.4,0.4
			c-1.1,0.2-2,0.5-2.8,0.9c-0.1,0.1-0.3,0.1-0.4,0.1c-0.6,0.1-1,0.3-1.4,0.5c-0.7,0.4-1.3,0.7-1.9,0.9c-0.2,0.1-0.3,0.1-0.5,0.3
			c-0.3,0.3-0.6,0.5-0.9,0.6c-0.2,0.1-0.4,0.2-0.5,0.4c-0.2,0.2-0.4,0.3-0.6,0.5l-0.1,0.1c-0.1,0.1-0.2,0.2-0.3,0.3
			c-0.2,0.2-0.4,0.4-0.6,0.5c-0.6,0.4-1,1-1.4,1.6l-0.2,0.2c-0.1,0.1-0.2,0.3-0.2,0.4l0,0.1c-0.1,0.3-0.2,0.6-0.3,0.9
			c-0.1,0.3-0.1,0.6,0,0.8c0.1,0.2,0.4,0.4,0.7,0.5c0.1,0,0.3,0,0.5-0.1c0.1-0.1,0.1-0.4,0-0.5c-0.1-0.2-0.1-0.4-0.1-0.4l0.5-0.8
			c0-0.1,0.1-0.1,0.1-0.2c0.1-0.1,0.1-0.2,0.2-0.3c0.3-0.2,0.5-0.5,0.7-0.8c0.3-0.3,0.6-0.7,1-1c0.8-0.7,1.7-1.3,2.5-1.8l0.3-0.2
			c0.2-0.1,0.3-0.2,0.5-0.3c0.2-0.1,0.5-0.2,0.7-0.4c0.4-0.1,0.8-0.3,1.1-0.5c0.3-0.1,0.5-0.3,0.8-0.4c1-0.4,2-0.6,3.2-0.9
			c0.5-0.1,1.1-0.2,1.6-0.2l0.4,0c0.7-0.1,1.4-0.1,2-0.1c0.7,0,1.4,0.1,2.2,0.2c1.1,0.1,2,0.4,2.8,0.8l0.1,0.1
			c0.3,0.1,0.5,0.2,0.7,0.4c0.1,0.1,0.2,0.2,0.3,0.2c0.1,0.1,0.2,0.1,0.2,0.2c0.7,0.6,1.3,1.3,1.7,2.1c0.2,0.3,0.3,0.7,0.4,1.1
			c0.1,0.2,0.1,0.4,0.2,0.6c0.1,0.4,0.3,0.8,0.2,1.3c0,0.1,0,0.3,0,0.4c0.1,0.6,0.1,1.2,0,2c0,0.2,0,0.4,0,0.7c0,0.2,0,0.3,0,0.5
			l0,0.2c0,0.2,0,0.5-0.1,0.7c0,0.2-0.1,0.4-0.1,0.6c0,0.1,0,0.3-0.1,0.4c0,0.1,0,0.2,0,0.2c0,0.1,0,0.2,0,0.3
			c0,0.2-0.1,0.3-0.1,0.5c-0.1,0.3-0.1,0.5-0.2,0.8c-0.1,0.7-0.3,1.4-0.5,2c-0.2,0.7-0.4,1.4-0.6,2.1c-0.1,0.3-0.2,0.7-0.3,1
			c0,0.1,0,0.2-0.1,0.2c0,0.1,0,0.2-0.1,0.3c-0.2,0.3-0.3,0.6-0.4,1c-0.1,0.2-0.1,0.3-0.2,0.5c-0.1,0.1-0.1,0.3-0.2,0.4
			c-0.1,0.1-0.1,0.3-0.2,0.4c-0.1,0.2-0.3,0.5-0.4,0.7c-0.1,0.1-0.1,0.2-0.2,0.4c-0.2,0.5-0.4,0.9-0.7,1.3c-0.2,0.2-0.4,0.5-0.5,0.8
			c-0.2,0.5-0.5,0.9-0.8,1.3c-0.1,0.1-0.2,0.2-0.3,0.3c-0.4,0.5-0.8,1.1-1.2,1.6c-0.2,0.2-0.3,0.4-0.5,0.6c-0.1,0.1-0.2,0.2-0.3,0.3
			c-0.1,0.1-0.2,0.3-0.4,0.4c-0.6,0.8-1.3,1.5-2.1,2.3c-0.2,0.2-0.5,0.4-0.7,0.6c-0.5,0.5-1,1-1.7,1.4c-0.4,0.2-0.7,0.4-1.1,0.7
			l-0.5,0.3c-0.1,0-0.1,0.1-0.2,0.1c-0.3,0.3-0.7,0.4-1.1,0.6c-0.1,0-0.2,0.1-0.3,0.1c-0.3,0.1-0.6,0.1-0.8-0.3
			c-0.1-0.1-0.1-0.2-0.2-0.3l0-0.1c0-0.1-0.1-0.1-0.1-0.2c-0.1-0.1-0.1-0.3-0.2-0.4c-0.3-0.4-0.4-0.9-0.3-1.5c0-0.2,0-0.3,0.1-0.5
			c0-0.1,0-0.3,0.1-0.4c0-0.1,0-0.2,0-0.3c0-0.2,0-0.3,0-0.5c0-0.2,0.1-0.3,0.2-0.5c0-0.1,0.1-0.2,0.1-0.2l0-0.1l0-0.1
			c-0.1-0.3-0.3-0.4-0.6-0.3h0c-0.3,0.1-0.4,0.3-0.4,0.5c0,0.4-0.1,0.8-0.3,1.2l0,0.1c0,0.1-0.1,0.3-0.1,0.4
			c-0.1,0.9-0.1,1.7-0.2,2.6c0,0.1,0,0.2,0.1,0.3l0,0c0.1,0.2,0.1,0.3,0.2,0.5c0.3,0.6,0.7,1.4,1.7,1.3c0.2,0,0.4,0,0.5,0
			c0.5,0,1.1-0.1,1.6-0.4c0.5-0.3,1-0.6,1.5-0.9c0.3-0.1,0.5-0.3,0.8-0.4c0.5-0.3,0.9-0.6,1.3-1c0.2-0.2,0.4-0.4,0.6-0.5
			c0.4-0.3,0.9-0.8,1.3-1.3c0.3-0.3,0.6-0.7,0.9-1c0.3-0.3,0.6-0.6,0.8-0.9c0.7-0.8,1.3-1.6,1.9-2.4c0.4-0.5,0.7-0.9,0.9-1.3
			c0.1-0.1,0.2-0.3,0.3-0.4c0.4-0.6,0.9-1.3,1.1-2c0-0.1,0.1-0.2,0.1-0.3c0-0.1,0.1-0.2,0.1-0.2l0.2-0.3c0.2-0.4,0.4-0.8,0.5-1.2
			c0.1-0.3,0.3-0.7,0.4-1c0.1-0.3,0.2-0.6,0.3-0.9c0.4-1,0.7-1.9,0.9-2.8c0-0.2,0.1-0.4,0.2-0.6l0.1-0.3
			C152.4,26,152.5,25.8,152.5,25.7z"/>
		<path d="M161.5,31.6l-0.1-0.1c0,0-0.1-0.1-0.2-0.1c-0.1,0-0.2-0.1-0.3-0.3c-0.1-0.2-0.2-0.5-0.3-0.7c-0.1-0.2-0.2-0.3-0.2-0.5
			c-0.1-0.2-0.2-0.4-0.2-0.6l0-0.3c-0.1-0.7-0.2-1.5-0.2-2.3c0-0.2,0-0.4-0.1-0.5c-0.1-0.3-0.2-0.5-0.2-0.7c0-0.2-0.1-0.4-0.3-0.5
			c-0.2-0.1-0.5-0.1-0.7,0c-0.3,0.2-0.6,0.4-0.7,0.7c-0.2,0.5-0.4,0.7-0.8,0.7c0,0,0,0,0,0c-0.3,0-0.5,0.2-0.6,0.5l0,0.1
			c-0.1,0.4-0.2,0.7,0,1.1c0,0.1,0,0.1,0,0.2c0,0.3,0,0.7,0,1c0,0.1,0,0.2,0,0.4c0,0.1,0,0.3,0,0.4c0,0.2,0,0.4,0,0.6
			c0,0.3,0.2,0.4,0.5,0.5c0.3,0,0.5-0.1,0.6-0.3c0.1-0.1,0.1-0.3,0.1-0.4c0-0.2,0.1-0.4,0.1-0.5c0-0.3,0.1-0.5,0.1-0.8l0-0.1
			c0.1-0.4,0.2-0.7,0.3-1.1c0.1-0.2,0.2-0.5,0.2-0.7c0-0.1,0-0.1,0-0.2c0,0.3,0.1,0.7,0.1,1c0,0.1,0,0.2,0.1,0.3c0,0,0,0.1,0,0.1
			l0,0.3c0.1,0.5,0.1,1.1,0.5,1.6c0,0,0,0,0,0.1c0,0,0,0.1,0,0.1l0.1,0.2c0.1,0.3,0.3,0.6,0.4,0.8c0.1,0.1,0.2,0.3,0.4,0.4
			c0.1,0.1,0.3,0.1,0.4,0.1c0.2,0,0.4-0.1,0.5-0.1C161.5,32.3,161.6,32,161.5,31.6L161.5,31.6z"/>
		<path d="M178.4,33c-0.1-0.3-0.4-0.4-0.6-0.3c-0.1,0-0.3,0-0.4,0c-0.1,0-0.1,0-0.2,0c-0.6-0.1-1-0.5-1.4-0.9
			c-0.4-0.3-0.6-0.7-0.7-1.2c-0.1-0.3-0.1-0.5-0.2-0.7c-0.2-0.4-0.3-0.8-0.3-1.2c0-0.2,0-0.3-0.1-0.5c-0.1-0.3-0.1-0.5,0-0.7
			c0.3-0.8,0.4-1.6,0.4-2.4c0-0.7-0.1-1.3-0.2-2l0-0.3c0-0.3,0-0.6,0-1c0-0.3,0-0.5,0-0.8c0-0.1,0-0.2,0-0.3c0,0,0-0.1,0-0.1
			c0.1-0.4,0.1-0.8,0.1-1.2c0-0.2,0-0.5,0-0.7c0-0.4-0.2-0.7-0.6-0.8c-0.4-0.1-0.8,0.1-0.9,0.4c-0.1,0.4-0.2,0.7-0.3,1.1
			c-0.1,0.4-0.1,0.9-0.1,1.3l0,0.5c0,0.1,0,0.1,0,0.2l0,0.1c0,0.2,0,0.3,0,0.5c0,0.4,0,0.8,0,1.1c0,0.2,0,0.3,0,0.5
			c0,0.4-0.1,0.7-0.1,1.1c0,0.4,0,0.8,0,1.2c0,0.2,0,0.3,0,0.5c0,0.3-0.1,0.3-0.2,0.3c-0.4,0.1-0.7,0.4-0.9,0.8
			c0,0.1-0.1,0.1-0.1,0.2l0,0c-0.2,0.3-0.4,0.6-0.5,1c-0.1,0.4-0.2,0.7-0.3,1l-0.2,0.6c0,0.1-0.1,0.2-0.2,0.2
			c-0.1,0.1-0.2,0.1-0.4,0.2c-0.2,0.1-0.4,0.2-0.7,0.3c-0.5,0.2-0.6,0.1-0.9-0.2c-0.1-0.1-0.1-0.2-0.2-0.3c-0.2-0.6-0.3-1.2-0.4-1.8
			c0-0.2,0-0.3-0.1-0.5c0,0,0-0.1,0-0.2l0.1-0.5c0.1-0.3,0.1-0.5,0.2-0.8l0.1-0.4c0.1-0.4,0.2-0.8,0.2-1.2c0-0.2,0.1-0.4,0.1-0.5
			c0.1-0.5,0.2-1,0.1-1.5c0,0,0,0,0-0.1c0.3-1.4,0.4-2.8,0.4-3.8c0-0.7-0.1-1.5-0.2-2.2l0-0.5c0-0.2-0.1-0.4-0.2-0.6
			c-0.1-0.2-0.4-0.4-0.7-0.3c-0.3,0.1-0.4,0.2-0.5,0.5c-0.1,0.5-0.2,1-0.4,1.5c-0.2,0.7-0.3,1.4-0.4,2c0,0.3-0.1,0.6-0.1,0.8
			c0,0.3-0.1,0.5-0.1,0.8l0,0.3c0,0.2,0,0.4,0,0.6c0,0.2,0,0.4,0,0.5c0,0.2,0,0.4,0,0.6c0,0.2,0,0.3,0,0.5c0,0.2,0,0.3,0,0.5
			c0,0.3,0,0.6,0,0.9c0,0.2,0,0.4,0,0.6c0,0,0,0.1,0,0.1c0,0,0,0.1,0,0.1l0,0.2c0,0.2,0,0.3,0,0.5c0,0.3,0.1,0.6,0.1,0.8l0,0.4
			c0.1,0.5,0.1,1-0.1,1.4c-0.1,0.1-0.1,0.2-0.2,0.3c-0.2,0.4-0.4,0.8-0.6,1.2c0,0.1-0.2,0.2-0.3,0.3c-0.2,0-0.3,0-0.5-0.2
			c-0.2-0.2-0.3-0.4-0.4-0.7c0-0.2-0.1-0.4-0.1-0.5c0-0.1,0-0.2-0.1-0.4l0-0.1c-0.1-0.6-0.2-1.1,0-1.7c0-0.2,0-0.4-0.1-0.5
			c-0.1-0.1-0.3-0.2-0.4-0.2c-0.4,0-0.9,0-1.3,0.3c-0.2,0.1-0.4,0.3-0.5,0.5l-0.1,0.2c-0.3,0.6-0.6,1.3-0.4,2c0,0.1,0,0.2,0,0.3
			c-0.1,0.5,0,1.1,0.3,1.6c0.2,0.3,0.4,0.5,0.7,0.5c0.3,0,0.5-0.1,0.7-0.4c0.1-0.2,0.2-0.4,0.3-0.6c0,0.1,0.1,0.2,0.1,0.2
			c0.1,0.2,0.3,0.4,0.4,0.5c0.3,0.3,0.7,0.4,1,0.4c0.4,0,0.7-0.2,1-0.5c0.2-0.3,0.5-0.6,0.7-0.9l0.1-0.2c0,0,0,0,0,0.1
			c0,0.1,0.1,0.2,0.1,0.3c0.1,0.2,0.1,0.4,0.2,0.5c0.4,0.7,1,1.1,1.7,0.9c0.5-0.1,1.2-0.3,1.6-0.8c0,0,0,0,0.1-0.1c0,0,0,0,0,0
			c0.1,0.1,0.1,0.2,0.2,0.3c0.3,0.4,0.7,0.5,1.2,0.3c0.1,0,0.1,0,0.2-0.1c0.1,0,0.2-0.1,0.3-0.1c0.1-0.1,0.3-0.1,0.4-0.3l0,0
			c0.3-0.3,0.5-0.6,0.6-1c0,0,0,0,0,0c0,0.1,0.1,0.1,0.1,0.3c0.2,0.7,0.6,1.3,1.3,1.8l0.1,0.1c0.1,0.1,0.1,0.1,0.2,0.2
			c0.5,0.5,1.1,0.7,1.8,0.7c0,0,0.1,0,0.1,0c0.5,0,0.8-0.2,1.1-0.6L178.4,33L178.4,33z M162.7,30.5c0,0.1-0.1,0.2-0.2,0.3
			c-0.1-0.2-0.1-0.3-0.2-0.4c-0.1-0.4,0.1-1.5,0.3-1.8c0.1,0,0.1,0.1,0.1,0.1C162.9,29.4,162.9,30,162.7,30.5z M167.5,24
			c0-0.5,0-1.1,0.1-1.6c0-0.5,0.1-1,0.2-1.6c0-0.4,0.1-0.8,0.1-1.2c0-0.1,0.1-0.2,0.2-0.2c0,0.1,0.1,0.3,0,0.4
			C167.9,21.2,167.9,22.6,167.5,24z M173.1,29c-0.1,0.3-0.1,0.6-0.2,0.9c-0.1,0.5-0.4,0.9-0.7,1.3c0,0.1-0.1,0.1-0.2,0.2
			c-0.1,0.1-0.3,0.1-0.3-0.1c-0.1-0.2-0.2-0.5-0.1-0.7c0.1-0.4,0.2-0.9,0.3-1.3c0.1-0.2,0.2-0.3,0.3-0.5c0.1-0.1,0.2-0.3,0.2-0.4
			c0.1-0.3,0.3-0.4,0.5-0.5C173.2,28.2,173.2,28.6,173.1,29z"/>
	</g>
	<path d="M249.6,29.5c-0.6,0.1-1.3,1-1.8,0.3c-0.6-0.7-0.1-2.1,0.3-2.7c0.3-0.4,1.9-1.2,1-1.7c-0.6-0.4-1.5,0.6-1.9,1
		c-0.6,0.8-0.8,1.9-1.1,2.8c-0.2,0.5-1.2,1.8-1.9,1.2c-0.2-0.2-0.1-1-0.1-1.3c-0.1-0.5-0.2-1-0.2-1.5c-0.1-1-0.2-1.9-0.3-2.8
		c-0.1-0.7,0.7-5.3-0.2-5.2c-0.6,0.1-1.2,1.9-1.5,2.3c-0.6,1.1-1.1,2.1-1.6,3.2c-0.2,0.5-0.8,2-1.4,2.2c-0.2,0.1-1-1.8-1.1-2.2
		c-0.3-1-0.5-2-0.6-3c-0.2-0.9-0.5-1.9-0.6-2.8c-0.1-1.9,0.8-4,2-5.5c0.6-0.7,0.6-1.7,0.8-2.6c0.2-0.9,0.9-2.4,0.4-3.2
		c-1.2-2-3.5,1-4.1,1.9c-1.1,1.5-1.7,3.6-1.7,5.4c0,0.9,0.2,2.1,0.5,3c0.1,0.4,0.4,0.9,0.4,1.3c-0.1,0.4-0.4,1-0.6,1.3
		c-1,1.7-2,3.4-2.9,5.1c-1,1.8-2.1,3.4-3.2,5.2c-1,1.6-1.9,3.3-3.5,4.3c-0.3,0.2-0.5,0.2-0.7,0.5c-0.1,0.1,0.2,0.3,0.1,0.5
		c-0.1,0.1-0.4,0.2-0.6,0.3c-0.8,0.9,1.1,0.5,1.6,0.3c1.1-0.4,1.9-1.2,2.6-2.1c0.7-0.9,1.5-1.8,2.1-2.8c1.1-2,2.8-4.2,3.4-6.5
		c0.2-0.8,0.4-1.4,0.9-2c0.6-0.8,0.9-1.8,1.4-2.7c0.9,0.7,0.9,2,1.1,3c0.2,1.1,0.6,2.1,1,3.1c0.2,0.5,0.5,1.1,0.5,1.6
		c0.1,0.7,0.1,1.5-0.2,2.1c-0.2,0.4-0.5,0.7-0.7,1.2c-0.3,0.7-0.3,1.8,0.7,2c0.9,0.2,1.4-1.1,1.5-1.8c0.1-0.7,0.2-1.3,0.1-2.1
		c0-0.6-0.2-1,0.1-1.6c0.4-0.9,1.4-1.8,2-2.6c0.9,0.6,0.4,1.9,0.5,2.8c0,0.5,0.3,1,0.4,1.5c0.1,0.5,0.2,1.1,0.5,1.5
		c0.6,0.8,1.6,0.7,2.3,0.3c0.5-0.3,1.9-0.8,2-1.4c0.6,0.4,1.2,0.5,1.9,0.2C249.3,30.8,250.6,29.4,249.6,29.5z M236.1,16.7
		c-0.4-0.3-0.3-1.4-0.4-1.9c-0.1-0.8,0-1.6,0.3-2.3c0.4-1,0.6-3.1,1.8-3.5c0.8-0.2,0.6,0.5,0.5,1.1c-0.1,0.7-0.4,1.5-0.6,2.2
		C237.3,13.7,236.8,15.3,236.1,16.7C235.9,16.5,236.2,16.5,236.1,16.7z M253.3,27.9c0.2,1,0.5,2,0.7,3c0.1,0.4,0.1,1.2,0.5,1.4
		c0.5,0.2,0.8-0.1,0.9-0.6c0.7-2,1-4.3,1.2-6.3c0.1-1,0.2-2,0.5-3c0.1-0.3,0.3-0.7-0.2-0.7c-0.4,0-0.5,0.6-0.6,0.9
		c-0.4,1.1-0.5,2.2-0.6,3.3c-0.1,0.8-0.1,2.5-0.7,3.2c-0.3-0.4-0.5-1.5-0.6-2c-0.1-0.7-0.3-1.4-0.4-2.1c-0.3-1.3-0.5-2.8-0.8-4.1
		c-0.1-0.3-0.2-1.4-0.6-1.5c-0.8-0.2-0.5,0.9-0.5,1.3c0.1,0.8-0.1,1.5-0.1,2.2c0,0.6,0,1.3,0,1.9c-0.1,1.5-0.4,2.9-0.6,4.4
		c-0.1,0.7-1,3.6-0.3,3.9c0.1,0,0.1-0.1,0.2-0.1c0.1-0.3,0.2-0.3,0.4-0.1c0.3-0.1,0.4,0.1,0.6-0.2c0.4-0.4,0.2-1.5,0.3-2
		c0.1-0.6,0.3-1.2,0.4-1.9c0.1-0.8,0-1.5,0.1-2.3C253.2,27.1,253.3,27.5,253.3,27.9z M265.2,27.2c-1.2,0.2-2.1,1.6-2.5,2.6
		c-0.1,0.3-0.5,1.7-1,1.7c-0.5,0-0.4-1.1-0.4-1.4c0-0.5,0.3-1.3,0.2-1.8c-0.1-0.7-0.6-0.4-0.9,0c-0.2,0.4-0.9,4.5-1.7,2.9
		c-0.1-0.3,0-0.7-0.1-1c-0.1-0.3-0.2-0.6-0.3-0.8c-0.1-0.5,0.2-1.5-0.5-1.7c-1.2-0.3-1.9,2.4-2.1,3.1c-0.1,0.6-0.1,1.5,0.4,1.9
		c0.6,0.5,1,0,1.5-0.3c0.5-0.2,0.3-0.1,0.7,0.1c0.2,0.1,0.4,0.3,0.7,0.3c0.6,0,0.9-0.6,1.3-1c0.3,0.3,0.5,0.7,1,0.7
		c0.4,0,0.8-0.5,1.2-0.5c0.4,0,0.4,0.7,0.9,0.3c0.3-0.3,0.1-0.9,0.1-1.2c0-0.9,0.3-2,0.9-2.7c0.3-0.3,0.8-0.3,1.1-0.5
		C265.8,27.7,265.6,27.2,265.2,27.2z M257.4,31c0.2,0.3-0.2,0.9-0.5,1c-0.2-0.6-0.1-2.3,0.5-2.7C257.6,29.8,257.1,30.5,257.4,31z
		 M261.2,25.9c0.1-0.2,0.2-0.3,0.3-0.5c0.1-0.1,0.1-0.2,0-0.3c-0.1-0.1-0.2-0.1-0.3,0c-0.3,0.1-0.4,0.4-0.5,0.7
		c0,0.2,0.1,0.3,0.3,0.3C261,26,261.2,25.9,261.2,25.9z"/>
</g>
<g>
	<path d="M52.2,38.3c0.2,0,0.4-0.1,0.6-0.2c0.7-0.5,1.3-1.1,1.8-1.8c0.1-0.1,0.1-0.2,0.2-0.3c0.5-0.6,0.5-1.2,0.4-1.9
		c-0.1-0.6-0.2-1.1-0.4-1.7c-0.2-0.9-0.4-1.8-0.4-2.7c0-0.4-0.1-0.8-0.1-1.2c0-0.3,0-0.6,0-0.9c0.1-1,0.3-1.9,0.5-2.9
		c0.2-0.7,0.5-1.4,0.9-2c0.2-0.4,0.5-0.7,0.8-0.9c0.2-0.1,0.3-0.3,0.5-0.5c0.5-0.6,1.7-0.9,2.4-0.5c0.4,0.2,0.6,0.5,0.7,0.9
		c0,0.2,0.1,0.3,0.1,0.5c0.1,1.2,0.1,2.5,0,3.7c0,0.4-0.2,0.8-0.3,1.2c-0.2,0.5-0.3,1.1-0.5,1.6c-0.2,0.5-0.4,0.9-0.6,1.4
		c-0.2,0.5-0.4,0.9-0.6,1.3c-0.2,0.4-0.5,0.9-0.7,1.3c-0.3,0.4-0.4,0.9-0.2,1.4c0.1,0.1,0.1,0.3,0.2,0.4c0.2,0.4,0.4,0.7,0.6,1.1
		c0.4,0.7,0.8,1.4,1.4,1.9c0.2,0.2,0.4,0.3,0.7,0.5c0.5,0.3,1,0.5,1.5,0.7c0.8,0.3,1.6,0.3,2.5,0.2c0.3,0,0.5-0.1,0.8,0
		c0.2,0.2,0.1,0.3,0.1,0.4c-0.2,0.3-0.4,0.5-0.6,0.8c-0.1,0.1-0.2,0.2-0.4,0.2c-0.6,0.2-1.1,0.3-1.7,0c-0.8-0.4-1.7-0.7-2.4-1.2
		c-0.2-0.2-0.5-0.4-0.7-0.5c-0.1-0.1-0.3-0.2-0.4-0.3c-0.5-0.3-0.8-0.7-1.1-1.2c-0.2-0.5-0.5-0.9-0.8-1.3c0-0.1-0.1-0.1-0.1-0.1
		c-0.2-0.2-0.5-0.2-0.7,0c-0.2,0.2-0.3,0.3-0.4,0.6c-0.2,0.5-0.4,0.9-0.6,1.4c-0.2,0.4-0.5,0.8-0.8,1.1c-0.2,0.2-0.5,0.3-0.7,0.4
		c-0.3,0.1-0.6,0.1-0.9,0.1c-0.5,0.1-1,0.2-1.4,0.6c-0.7,0.5-1.5,0.8-2.3,1.2c-0.3,0.2-0.7,0.2-1.1,0.1c-0.2,0-0.3-0.1-0.5-0.2
		c-0.5-0.3-0.8-0.6-1.2-1c-0.4-0.5-0.6-1.1-0.6-1.7c-0.1-0.7-0.1-1.3-0.1-2c0-0.1,0-0.2-0.1-0.4c-0.1-0.2-0.3-0.2-0.4-0.1
		c-0.1,0.1-0.2,0.3-0.2,0.5c-0.3,0.8-0.4,1.6-0.5,2.4c-0.1,0.3-0.1,0.6-0.2,0.9c0,0.2-0.1,0.4-0.3,0.6c-0.3,0.3-0.6,0.3-0.9,0
		c0,0-0.1-0.1-0.1-0.1c-0.3-0.3-0.6-0.4-1-0.2c-0.5,0.2-0.9,0.3-1.5,0.1c-0.3-0.1-0.5-0.3-0.8-0.5c-0.6-0.5-0.7-0.5-1.3,0
		c-0.2,0.2-0.4,0.3-0.6,0.5c-0.1,0.1-0.3,0.2-0.4,0.3c-0.3,0.2-0.6,0.2-0.9-0.1c-0.1-0.1-0.2-0.2-0.3-0.3c-0.2-0.2-0.5-0.2-0.7-0.1
		c-0.2,0.1-0.3,0.2-0.5,0.4c-0.2,0.1-0.3,0.3-0.5,0.4c-0.1,0.1-0.2,0.1-0.3,0.1c-0.8,0.1-1.8-0.3-2.1-1c-0.2-0.3-0.3-0.6-0.4-0.9
		C31,38.6,31,38.2,31,37.8c0.1-0.7,0.3-1.4,0.6-2.1c0.2-0.4,0.4-0.7,0.8-0.9c0.4-0.2,0.7-0.3,1.1-0.5c0.3-0.1,0.7-0.2,1-0.1
		c0.3,0.1,0.6,0.2,0.6,0.6c0,0.3,0.2,0.5,0.3,0.7c0.4,0.4,0.5,0.9,0.5,1.5c0,0.4,0.1,0.7,0.1,1.1c0,0.2,0.1,0.3,0.2,0.5
		c0.2,0.4,0.8,0.5,1.1,0.2c0.2-0.2,0.4-0.5,0.4-0.7c0.1-0.2,0.1-0.4,0.2-0.7c0.1-0.4,0.2-0.8,0.4-1.2c0.2-0.4,0.6-0.8,1-1
		c0.4-0.2,0.8-0.4,1.2-0.6c0.2-0.1,0.4-0.1,0.6-0.2c0.2,0,0.5,0.1,0.6,0.3c0.1,0.2,0.1,0.5-0.1,0.7c-0.1,0.1-0.2,0.2-0.3,0.2
		c-0.3,0.3-0.6,0.6-0.8,1c-0.1,0.2-0.2,0.3-0.3,0.5c-0.2,0.3-0.3,0.7-0.3,1.1c0,0.6,0.5,0.9,1.1,0.6c0.1-0.1,0.3-0.2,0.4-0.3
		c0.6-0.5,1-1.2,1.3-1.9c0.1-0.3,0.2-0.6,0.2-0.9c0.2-1.2,0.3-2.4,0.6-3.6c0.1-0.3,0.1-0.7,0.1-1c0.1-1.2,0.2-2.3,0.2-3.5
		c0.1-0.7,0.1-1.4,0.2-2c0-0.1,0.1-0.3,0.2-0.4c0.2-0.2,0.4-0.2,0.6,0c0.4,0.4,0.7,0.9,0.7,1.6c-0.1,1-0.2,1.9-0.3,2.9
		c0,0,0,0.1,0,0.1c0,1.2-0.3,2.3-0.5,3.4c-0.1,0.5,0.1,0.8,0.5,1c0.1,0,0.1,0,0.2,0.1c0.5,0.1,0.7,0.4,0.8,0.8
		c0,0.2,0.1,0.3,0.1,0.5c0.2,0.9,0.4,1.7,0.7,2.5c0.1,0.2,0.2,0.4,0.4,0.6c0.4,0.5,1.2,0.3,1.5-0.1c0.2-0.3,0.3-0.6,0.3-0.9
		c0-0.8,0.2-1.7,0.4-2.5c0.1-0.3,0.2-0.5,0.4-0.6c0.4-0.4,0.7-0.4,1.2-0.2c0.1,0,0.2,0.1,0.3,0.1c0.4,0.2,0.6,0.6,0.6,1
		c0,0.4-0.1,0.8-0.1,1.2c0,0.1-0.1,0.3-0.1,0.4c0,0.1-0.1,0.2-0.1,0.4C51.6,37.9,51.6,38,52.2,38.3z M56.5,30.8
		c0.3,0.1,0.5,0.1,0.7-0.1c0.3-0.2,0.5-0.6,0.6-0.9c0.2-0.5,0.4-1.1,0.5-1.7c0.2-0.6,0.4-1.1,0.4-1.7c0.1-0.5,0.2-1,0.4-1.5
		c0-0.1,0.1-0.2,0.1-0.3c0.3-0.7,0.2-1.5,0-2.2c-0.1-0.5-0.6-0.9-1.3-0.6c-0.1,0.1-0.3,0.2-0.4,0.3c-0.1,0.1-0.3,0.3-0.4,0.4
		c-0.7,0.8-1,1.6-1.1,2.7c0,0.5,0,1,0,1.5c0,0.4,0.1,0.8,0.1,1.2c0,0.6,0.2,1.1,0.1,1.7C56.3,30,56.3,30.4,56.5,30.8z M34.1,37.1
		c0-0.2,0-0.3-0.1-0.5c-0.1-0.2-0.3-0.3-0.5-0.1c-0.3,0.3-0.3,0.8-0.1,1.2c0.1,0.1,0.2,0.2,0.3,0.2c0.1,0,0.2-0.1,0.3-0.2
		C34.1,37.4,34.1,37.2,34.1,37.1z"/>
	<path d="M66.4,19.2c-0.4,0.6-0.4,0.6-0.8,0.6c-0.1-0.1-0.1-0.2,0-0.3c0.1-0.2,0.3-0.3,0.5-0.4c0.2-0.2,0.4-0.4,0.6-0.6
		c0.2-0.3,0.5-0.6,0.9-0.7c0.3-0.1,0.7-0.3,1-0.4c0.2-0.1,0.4-0.2,0.7-0.4c0.6-0.4,1.3-0.7,1.9-1c0.7-0.3,1.3-0.6,2-0.8
		c0.7-0.3,1.4-0.5,2.1-0.7c0.4-0.1,0.8-0.2,1.3-0.3c0.2-0.1,0.4-0.1,0.7-0.2c0.6-0.1,1.2-0.2,1.8-0.5c0.6-0.2,1.2-0.2,1.8-0.3
		c0.4,0,0.7,0,1.1-0.1c0.5-0.1,1.1,0,1.6,0.1c0.5,0.1,0.9,0.2,1.3,0.3c0.6,0.2,1.1,0.4,1.5,0.9c0.1,0.1,0.1,0.2,0.2,0.3
		c0.3,0.9,0.6,1.8,0.1,2.8c-0.4,0.8-0.9,1.6-1.4,2.4c-0.1,0.2-0.2,0.4-0.3,0.5c-0.3,0.6-0.6,1.1-1.2,1.5c-0.4,0.3-0.7,0.6-1,1
		c-0.6,0.7-1.2,1.4-1.8,2c-0.2,0.2-0.5,0.5-0.8,0.6c-0.2,0.1-0.4,0.2-0.6,0.4c-0.4,0.3-0.4,0.7,0,1.1c0.3,0.3,0.6,0.5,0.9,0.8
		c0.6,0.5,0.9,1.3,1.1,2.1c0.1,0.6,0.2,1.2,0.2,1.7c0,0.6,0.1,1.2,0.3,1.7c0.4,1.2,0.6,2.5,0.8,3.8c0.1,0.7,0.4,1.2,0.7,1.8
		c0.2,0.3,0.4,0.5,0.7,0.7c0.4,0.3,0.9,0.2,1.3,0c0.2-0.1,0.4-0.3,0.6-0.4c0.2-0.1,0.3-0.2,0.5-0.2c0.3,0.2,0.5,0.5,0.4,0.9
		c-0.1,0.5-0.2,1.1-0.4,1.6c-0.1,0.3-0.4,0.5-0.7,0.6c-0.7,0.2-1.4,0.2-2-0.2c-0.8-0.5-1.2-1.2-1.4-2.1c-0.1-0.6-0.3-1.3-0.5-1.9
		c-0.2-0.7-0.3-1.4-0.4-2.1c-0.2-1-0.4-2-0.6-2.9c-0.1-0.2-0.1-0.4-0.1-0.6c-0.1-0.9-0.4-1.8-0.8-2.6c-0.4-0.9-1.2-1.5-2-1.9
		c-0.3-0.2-0.6-0.2-1-0.2c-0.4,0.1-0.8,0.1-1.2,0.2c-0.5,0.1-0.6,0.3-0.7,0.8c0,0.2,0,0.4,0,0.6c0,0.9,0.1,1.9,0.1,2.8
		c0,0.2,0,0.3,0,0.5c-0.1,0.9-0.1,1.8,0,2.7c0.1,0.7,0,1.3,0,2c0,0.3-0.1,0.5-0.4,0.7c-0.4,0.3-0.9,0.1-1.1-0.3
		c-0.2-0.5-0.3-1-0.3-1.5c0-0.6,0-1.2,0.1-1.9c0-0.3,0-0.5-0.1-0.8c-0.1-0.5-0.2-0.9,0-1.4c0.1-0.4,0.2-0.9,0.2-1.4
		c0-0.1,0-0.3,0-0.4c0.2-0.9,0.1-1.7,0.1-2.6c0-0.8,0-1.6,0.1-2.4c0-0.3,0-0.6,0-0.9c0-0.6,0-1.1,0-1.7c0-0.2,0-0.3,0-0.5
		c0-0.1,0.1-0.3,0.3-0.3c0.2,0,0.3,0.1,0.4,0.2c0.3,0.5,0.6,1,0.6,1.6c0,0.5,0,1,0.1,1.5c0.1,0.2,0,0.5,0,0.7c0,0.2,0,0.4,0.1,0.6
		c0.2,0,0.4,0.1,0.6,0.1c1.3-0.9,2.5-1.8,3.7-2.7c0.1,0,0.1-0.1,0.2-0.1c0.7-0.6,1.4-1.3,2.2-1.9c0.3-0.2,0.5-0.5,0.8-0.7
		c0.1,0,0.1-0.1,0.2-0.1c0.6-0.6,1.2-1.1,1.4-2c0.1-0.3,0.2-0.6,0.3-0.9c0.2-0.6,0.2-1.2,0.2-1.8c0-0.2-0.1-0.4-0.2-0.6
		c-0.5-0.8-0.5-0.8-1.5-1c-0.9-0.2-1.8,0-2.6,0.4c-0.3,0.1-0.6,0.3-0.8,0.4c-0.3,0.1-0.6,0.2-0.9,0.2c-0.7,0.1-1.4,0.2-2,0.4
		c-0.4,0.1-0.9,0.2-1.3,0.3c-0.2,0-0.5,0.1-0.7,0.1c-0.7,0.2-1.4,0.4-2,0.8c-0.2,0.1-0.4,0.2-0.6,0.2c-0.8,0.1-1.6,0.3-2.3,0.4
		c-0.4,0.1-0.8,0.2-1.1,0.5c-0.5,0.4-1,0.5-1.6,0.7C66.7,19.2,66.6,19.2,66.4,19.2z"/>
	<path d="M3.1,21.4C3,21.4,3,21.5,3,21.5c-0.4,0.1-0.9,0.3-1.3,0.4c-0.2-0.1-0.2-0.3-0.1-0.4c0.3-0.5,0.5-0.9,0.8-1.4
		c0.3-0.4,0.6-0.8,0.8-1.2c0-0.1,0.1-0.1,0.1-0.2c0.8-0.8,1.4-1.8,2.1-2.7c0.4-0.4,0.7-0.9,1.1-1.3c0.3-0.4,0.7-0.7,1.2-1
		C8,13.5,8.3,13.2,8.6,13c0.6-0.5,1.2-0.8,1.9-1.2c0.5-0.3,1-0.6,1.5-1c0.6-0.5,1.3-0.8,2-1.1c0.6-0.3,1.2-0.5,1.7-0.9
		c1-0.7,2.2-1.1,3.3-1.6c0.2-0.1,0.4-0.1,0.7-0.2c0.1,0,0.2,0,0.4-0.1c0.9-0.4,1.9-0.6,2.8-0.9c1.1-0.4,2.3-0.6,3.5-0.7
		c0.4,0,0.9-0.1,1.3-0.1c0.7,0,1.5,0.1,2.2,0.1c0.2,0,0.4,0.1,0.6,0.1c0.3,0.1,0.7,0.2,1,0.3c1.7,0.5,3,1.5,3.7,3.2
		c0.1,0.1,0.1,0.2,0.1,0.4c0.1,0.8,0.2,1.6,0,2.4c-0.2,1-0.6,2-1,3c-0.2,0.3-0.4,0.6-0.6,0.9c-0.3,0.4-0.6,0.8-0.8,1.2
		c-0.3,0.4-0.6,0.8-0.9,1.2c-0.2,0.3-0.4,0.6-0.6,0.9c-0.2,0.3-0.4,0.6-0.7,0.8c-0.4,0.3-0.7,0.8-1.1,1.1c-0.2,0.2-0.4,0.4-0.6,0.6
		c-0.1,0.1-0.2,0.1-0.2,0.2c-0.8,0.8-1.7,1.6-2.5,2.4c-0.4,0.4-0.7,0.7-1,1.1c-0.1,0.3,0,0.5,0.1,0.7c0.4,0.2,0.8,0.5,1.2,0.7
		c0.4,0.2,0.6,0.5,0.8,0.9c0.2,0.5,0.4,0.9,0.7,1.4c0.4,0.7,0.6,1.5,0.8,2.3c0.2,0.7,0.4,1.4,0.5,2.1c0.1,0.3,0.1,0.5,0.1,0.8
		c0.2,1,0.3,2.1,0.5,3.1c0.1,0.8,0.3,1.7,0.6,2.5c0.2,0.7,0.5,1.4,0.8,2c0.3,0.6,0.7,1.2,1.2,1.6c0.2,0.2,0.4,0.3,0.6,0.4
		c0.3,0.2,0.5,0.5,0.4,0.8c0,0.3-0.2,0.4-0.5,0.4c-0.3,0-0.5-0.1-0.7-0.3c-0.7-0.5-1.3-1-1.7-1.8c-0.2-0.3-0.4-0.6-0.6-1
		c-0.2-0.5-0.4-1-0.5-1.5c-0.1-0.4-0.1-0.7-0.2-1.1c-0.3-1.1-0.5-2.1-0.9-3.2c-0.1-0.2-0.1-0.3-0.1-0.5c-0.2-1.1-0.4-2.3-0.6-3.4
		c0-0.2,0-0.3,0-0.5c0.1-0.6-0.1-1.2-0.3-1.7c-0.1-0.2-0.2-0.4-0.3-0.7c-0.2-0.5-0.5-0.9-0.9-1.3c-0.5-0.5-1-0.8-1.7-0.9
		c-0.7-0.2-1.5-0.1-2.2,0.3c-0.2,0.1-0.3,0.2-0.5,0.3c-0.1,0-0.2,0.1-0.3,0.1c-0.1,0-0.3,0-0.3-0.1c-0.1-0.1-0.1-0.2,0-0.4
		c0.1-0.1,0.2-0.2,0.2-0.3c0.6-0.6,1.2-1.2,1.7-1.8c0.2-0.3,0.5-0.5,0.8-0.6c0.4-0.2,0.8-0.5,1.1-0.9c0.4-0.5,0.8-0.9,1.4-1.3
		c0.2-0.2,0.4-0.3,0.6-0.5c0.8-0.8,1.7-1.7,2.5-2.5c0.1-0.1,0.2-0.3,0.4-0.4c0.2-0.3,0.5-0.5,0.8-0.7c0.2-0.2,0.4-0.3,0.5-0.5
		c0.2-0.3,0.5-0.5,0.6-0.8c0.2-0.3,0.4-0.7,0.6-1.1c0.2-0.5,0.4-1,0.6-1.4c0.2-0.4,0.3-0.8,0.5-1.1c0.5-0.9,0.6-1.9,0.4-2.9
		c-0.1-0.7-0.3-1.3-0.6-1.9c-0.1-0.2-0.2-0.3-0.4-0.5c-0.4-0.5-1-0.9-1.6-1.1c-0.8-0.2-1.5-0.4-2.3-0.5c-0.1,0-0.1,0-0.2,0
		c-1,0-2,0-3,0c-0.1,0-0.2,0-0.3,0c-0.9,0.2-1.9,0.5-2.8,0.7c-0.9,0.2-1.8,0.6-2.7,1c-0.4,0.1-0.7,0.3-1.1,0.4
		c-1,0.3-1.9,0.8-2.7,1.3c-0.2,0.1-0.4,0.2-0.5,0.3c-0.3,0.2-0.7,0.4-1,0.6c-0.4,0.2-0.8,0.4-1.2,0.7c-0.8,0.4-1.5,1-2.2,1.6
		c-0.8,0.7-1.5,1.4-2.4,2c-0.1,0.1-0.2,0.2-0.3,0.3c-0.7,0.7-1.5,1.3-2.2,2c-0.4,0.3-0.7,0.8-1,1.2c-0.1,0.2-0.3,0.3-0.4,0.5
		c-0.5,0.5-0.9,1-1.4,1.5c-0.1,0.1-0.2,0.3-0.3,0.5C3.2,21,3.2,21.2,3.1,21.4z"/>
	<path d="M19,38c0-0.5,0-1,0-1.5c0.1-1,0.1-2.1,0.2-3.1c0-0.1,0-0.2,0-0.2c0.1-1.8,0.2-3.6,0.1-5.4c0-0.8,0.1-1.6,0.2-2.4
		c0-0.3,0.1-0.7,0-1c0-0.1,0-0.3,0-0.4c0.1-0.7,0-1.4,0.1-2.1c0-0.1,0-0.3,0-0.4c-0.1-0.4,0-0.7,0-1.1c0.1-1.2,0.3-2.5,0.4-3.7
		c0-0.3,0.2-0.6,0.4-0.6c0.3,0,0.4,0.2,0.5,0.4c0.1,0.1,0.1,0.3,0.2,0.5c0,0.2,0,0.5,0,0.7c-0.1,0.8-0.2,1.5-0.2,2.3
		c-0.1,1-0.1,1.9-0.2,2.9c0,0.1,0,0.3,0,0.4c-0.1,1-0.2,2-0.2,3c0,0.4-0.1,0.7,0.1,1c0.1,0.2,0.1,0.4,0,0.5c-0.3,1-0.2,1.9-0.1,2.9
		c0.1,0.6,0.1,1.2,0.2,1.8c0,0.3,0.1,0.6,0.1,0.9c0.1,1.1,0,2.1-0.4,3.1c-0.2,0.6-0.3,1.2-0.3,1.8c0,1,0,1.9,0,2.9
		c0,0.2,0,0.4-0.1,0.6c-0.1,0.2-0.3,0.3-0.5,0.1c-0.2-0.1-0.3-0.3-0.3-0.5C19.1,41,19,40.5,19,40C18.9,39.3,19,38.6,19,38
		C19,38,19,38,19,38z"/>
	<path d="M94.4,36.2c0,0.1,0,0.3-0.1,0.4c-0.1,0.2-0.3,0.3-0.5,0.4c-0.5,0.2-1,0.2-1.5,0.1c-0.3-0.1-0.7-0.1-0.9-0.3
		c-0.2-0.1-0.3-0.2-0.5-0.3c-0.6-0.4-1.2-0.3-1.7,0.1c-0.2,0.2-0.5,0.3-0.8,0.3c-0.3,0.1-0.6,0.1-0.9,0c-0.4-0.1-0.8,0-1.2,0.3
		c-0.1,0.1-0.3,0.3-0.4,0.4c-0.3,0.2-0.5,0.2-0.8,0.1c-0.3-0.1-0.5-0.3-0.7-0.6c-0.2-0.4-0.4-0.8-0.4-1.3c-0.1-0.9,0.2-1.7,0.6-2.5
		c0.2-0.4,0.6-0.8,1-1c0.5-0.2,1,0,1.3,0.5c0.3,0.5,0.5,1.1,0.5,1.7c0,0.1,0,0.3,0,0.4c0,0.2,0.1,0.4,0.2,0.6
		c0.2,0.3,0.3,0.4,0.7,0.4c0.1,0,0.2,0,0.3-0.1c0.3-0.1,0.6,0,0.7-0.3c0.2-0.4,0.4-0.7,0.3-1.2c-0.1-0.3-0.1-0.6-0.1-0.9
		c0-0.7,0.5-1.1,1-1.5c0.6-0.4,1.7,0.2,1.7,1c-0.1,0.5-0.1,0.9-0.4,1.4c-0.2,0.3-0.3,0.6-0.3,0.9c0,0.4,0.2,0.6,0.5,0.7
		c0.2,0.1,0.4,0.1,0.7,0.2c0.3,0,0.6,0,0.9,0C93.8,36.1,94.1,36,94.4,36.2z M85.2,35.9c0.6-0.1,0.7-0.1,0.8-0.5
		c0.1-0.3,0.2-0.6,0.2-0.8c0-0.3-0.1-0.5-0.3-0.7c-0.2-0.1-0.4-0.1-0.6,0c-0.3,0.3-0.4,0.6-0.4,1c0,0.2,0,0.5,0.1,0.7
		C85.1,35.6,85.1,35.7,85.2,35.9z M90.2,33.8c0,0.4,0.3,0.6,0.6,0.5c0.1,0,0.1,0,0.2-0.1c0.2-0.2,0.4-0.4,0.4-0.7
		c0.1-0.3-0.1-0.5-0.4-0.6c-0.2-0.1-0.4,0-0.6,0.2C90.3,33.3,90.2,33.5,90.2,33.8z"/>
</g>
<g>
	<path d="M115.2,29.4c0.4-0.9,1.4-1.6,2.3-1.6c1.3,0,1.6,1.2,1.5,1.8c-0.1,0.4-0.2,0.7-0.6,0.7c-1,0-0.3-1.7-1.2-1.7
		c-0.6,0-1.3,0.6-1.9,2c-0.3,0.7,0.1,1.8-0.3,2.5c0.1,0.1-0.4,0.3-0.3,0.5c0.5,0.9,1.5,1.8,2.1,1.8c0.4,0,0.8-1,1.4-1.6
		c0.2-0.1,0.3,0.5,0.2,0.7c-0.6,0.8-1.4,1.7-2.2,1.7c-1,0-1.7-1-2.4-1.9c-0.8,0.9-1.9,1.5-3.3,1.5c-2,0-4.1-1.2-3.6-4.1
		c0.3-1.7,2.1-2.7,3.5-3.7c-0.4-1.3-0.9-2.6-0.7-3.7c0.4-2.1,2.3-3.4,4-3.4c1.9,0,2.5,1.3,2.2,2.9c-0.1,0.8-0.4,2-1.2,2.6
		c-0.4,0-0.2-0.6-0.2-1.1c0.4-0.5,0.8-0.9,0.9-1.3c0.2-1.2-0.9-1.6-1.9-1.6c-1.3,0-1.7,0.7-1.9,1.7c-0.2,1.5-0.6,2.9,0.1,4.5
		c0.5,1.2,1.4,2.5,2.3,4.1C114.4,31.7,114.7,30.4,115.2,29.4z M110.5,28.8c-0.9,0.8-1.4,1.6-1.6,3.1c-0.2,1.3,0.3,2.9,2.1,2.9
		c0.9,0,1.9-0.6,2.5-1.4C112.4,31.7,111.2,30.3,110.5,28.8z"/>
</g>
</svg>
